<svg xmlns="http://www.w3.org/2000/svg" width="210.997" height="109.29" viewBox="0 0 210.997 109.29"><defs><style>.a{fill:#036ad1;}.b{fill:none;stroke:#000;stroke-miterlimit:10;stroke-width:0.25px;}</style></defs><g transform="translate(1185.56 -1034.643)"><g transform="translate(-1185.56 1124.683)"><path d="M-1178.76,1063.51v14.717h-3.718V1063.51h-3.082v-3.632h9.886v3.632Z" transform="translate(1185.56 -1059.59)"/><path d="M-1175.6,1078.227a12.934,12.934,0,0,1-.276-1.275,9.2,9.2,0,0,1-.083-1.336v-1.4q0-2.9-1.678-2.9h-1.02v6.911h-3.718v-18.349h5.565a4.637,4.637,0,0,1,3.441,1.128,5.05,5.05,0,0,1,1.1,3.617v.923a6.376,6.376,0,0,1-.51,2.708,2.822,2.822,0,0,1-1.749,1.5,3.027,3.027,0,0,1,1.789,1.786,7.927,7.927,0,0,1,.5,2.9v1.276c0,.424.018.855.057,1.289a3.144,3.144,0,0,0,.356,1.225Zm-.33-13.061a2.5,2.5,0,0,0-.36-1.5,1.374,1.374,0,0,0-1.182-.478h-1.185v4.907h1.1a1.586,1.586,0,0,0,1.254-.431,2.283,2.283,0,0,0,.37-1.48Z" transform="translate(1193.806 -1059.59)"/><path d="M-1171.687,1078.227l-.442-3.279h-2.921l-.467,3.279h-3.689l3.165-18.349h4.958l3.14,18.349Zm-1.875-14.43-1.074,7.742h2.123Z" transform="translate(1202.034 -1059.59)"/><path d="M-1175.61,1078.227v-18.349h3.747v18.349Z" transform="translate(1211.354 -1059.59)"/><path d="M-1167.256,1078.227l-3.222-11.786v11.786h-3.33v-18.349h4.3L-1166.4,1071v-11.118h3.359v18.349Z" transform="translate(1216.025 -1059.59)"/><path d="M-1170.052,1078.227v-18.349h3.747v18.349Z" transform="translate(1225.761 -1059.59)"/><path d="M-1161.7,1078.227l-3.222-11.786v11.786h-3.334v-18.349h4.3l3.115,11.118v-11.118h3.359v18.349Z" transform="translate(1230.43 -1059.59)"/><path d="M-1154.224,1078.435h-1.958l-.5-.636a3.837,3.837,0,0,1-2.892.956,5.364,5.364,0,0,1-2.572-.543,3.853,3.853,0,0,1-1.559-1.512,6.723,6.723,0,0,1-.754-2.328,19.666,19.666,0,0,1-.208-3.01v-4.174a17.222,17.222,0,0,1,.248-3.057,6.4,6.4,0,0,1,.855-2.324,4.084,4.084,0,0,1,1.638-1.484,5.748,5.748,0,0,1,2.6-.524,7.187,7.187,0,0,1,2.026.27,3.865,3.865,0,0,1,1.584.89,4.2,4.2,0,0,1,1.031,1.66,7.638,7.638,0,0,1,.374,2.565v.891h-3.635v-.955a2.786,2.786,0,0,0-.126-.863,1.479,1.479,0,0,0-.4-.635,1.184,1.184,0,0,0-.826-.255,1.252,1.252,0,0,0-1.157.589,3.264,3.264,0,0,0-.359,1.674v7.389q0,2.171,1.544,2.17a1.345,1.345,0,0,0,1.074-.417,1.646,1.646,0,0,0,.356-1.114v-1.721h-1.347v-3.474h4.958Z" transform="translate(1239.732 -1059.798)"/><path d="M-1147.572,1070.709a4.439,4.439,0,0,1-3.564,1.276h-1.487v6.243h-3.693v-18.349h5.345a4.136,4.136,0,0,1,3.4,1.322,6.365,6.365,0,0,1,1.088,4.092v1.211A6.463,6.463,0,0,1-1147.572,1070.709Zm-2.572-5.766a1.876,1.876,0,0,0-.33-1.275,1.608,1.608,0,0,0-1.186-.352h-.962v5.195l.909.032a1.42,1.42,0,0,0,1.225-.4,2.482,2.482,0,0,0,.345-1.512Z" transform="translate(1261.372 -1059.59)"/><path d="M-1153.125,1078.227v-18.349h3.743V1074.5h4.738v3.725Z" transform="translate(1269.641 -1059.59)"/><path d="M-1143.015,1078.227l-.441-3.279h-2.921l-.467,3.279h-3.69l3.165-18.349h4.957l3.139,18.349Zm-1.875-14.43-1.074,7.742h2.123Z" transform="translate(1276.358 -1059.59)"/><path d="M-1137.057,1075.313a4.963,4.963,0,0,1-.962,2.008,3.642,3.642,0,0,1-1.584,1.1,6.487,6.487,0,0,1-2.177.334,5.905,5.905,0,0,1-2.727-.543,3.894,3.894,0,0,1-1.624-1.544,6.765,6.765,0,0,1-.783-2.422,21.728,21.728,0,0,1-.209-3.172v-3.758a19.872,19.872,0,0,1,.22-3.107,6.43,6.43,0,0,1,.815-2.357,4.018,4.018,0,0,1,1.638-1.512,5.77,5.77,0,0,1,2.669-.542,7.475,7.475,0,0,1,2.206.287,3.463,3.463,0,0,1,1.555.956,4.077,4.077,0,0,1,.909,1.781,11.372,11.372,0,0,1,.288,2.773v1.146h-3.607v-1.049a5.019,5.019,0,0,0-.111-1.085,1.953,1.953,0,0,0-.384-.844,1.01,1.01,0,0,0-.826-.334q-1.461,0-1.459,2.324v7.138a3.11,3.11,0,0,0,.356,1.609,1.18,1.18,0,0,0,1.074.589.957.957,0,0,0,.869-.464,2.861,2.861,0,0,0,.384-1.081,8.366,8.366,0,0,0,.1-1.29v-1.118h3.689v1.118A12.52,12.52,0,0,1-1137.057,1075.313Z" transform="translate(1285.2 -1059.798)"/><path d="M-1143.643,1078.227v-18.349h8.51v3.632h-4.792v3.441h4.106v3.664h-4.106v3.887h5.012v3.725Z" transform="translate(1294.222 -1059.59)"/><path d="M-1129.99,1078.227v-13.252l-2.174,13.252h-3.057l-2.094-13.219v13.219h-3.33v-18.349h5.176l1.818,11.661,1.818-11.661h5.176v18.349Z" transform="translate(1301.993 -1059.59)"/><path d="M-1136.061,1078.227v-18.349h8.51v3.632h-4.792v3.441h4.1v3.664h-4.1v3.887h5.011v3.725Z" transform="translate(1313.876 -1059.59)"/><path d="M-1126.477,1078.227l-3.222-11.786v11.786h-3.334v-18.349h4.3l3.111,11.118v-11.118h3.358v18.349Z" transform="translate(1321.726 -1059.59)"/><path d="M-1122.772,1063.51v14.717h-3.718V1063.51h-3.086v-3.632h9.886v3.632Z" transform="translate(1330.687 -1059.59)"/></g><g transform="translate(-1185.56 1052.647)"><path class="a" d="M-1185.56,1106.921v-67.176h47.135v12.8h-28.555v15.577h26.508v12.706h-26.508v26.094Z" transform="translate(1185.56 -1039.745)"/><path class="a" d="M-1170,1106.921v-67.176h18.579v67.176Z" transform="translate(1225.886 -1039.745)"/><path class="a" d="M-1142.509,1106.921V1053.09h-20.357v-13.345h59.341v13.345h-20.311v53.831Z" transform="translate(1244.387 -1039.745)"/><path class="a" d="M-1147.729,1106.921l25.958-67.176h22.635l26.5,67.176h-20.81l-4.645-13.162h-26.418l-4.645,13.162Zm45.087-26-8.517-28.009-9.336,28.009Z" transform="translate(1283.629 -1039.745)"/></g><rect width="2.722" height="18.964" transform="translate(-1091.953 1124.969)"/><circle class="b" cx="9.565" cy="9.565" r="9.565" transform="translate(-996.08 1034.768)"/><g transform="translate(-990.229 1039.525)"><path d="M-1131.185,1045.841v-9.749h4.146a7.159,7.159,0,0,1,2.27.262,2.243,2.243,0,0,1,1.131.937,2.8,2.8,0,0,1,.428,1.534,2.6,2.6,0,0,1-.647,1.814,3.086,3.086,0,0,1-1.929.9,4.505,4.505,0,0,1,1.056.819,11.346,11.346,0,0,1,1.121,1.584l1.189,1.9h-2.353l-1.423-2.12a13.867,13.867,0,0,0-1.038-1.433,1.5,1.5,0,0,0-.593-.406,3.168,3.168,0,0,0-.991-.112h-.4v4.07Zm1.969-5.626h1.458a7.606,7.606,0,0,0,1.767-.118,1.094,1.094,0,0,0,.553-.413,1.271,1.271,0,0,0,.2-.733,1.161,1.161,0,0,0-.262-.794,1.188,1.188,0,0,0-.74-.381c-.162-.025-.64-.036-1.437-.036h-1.537Z" transform="translate(1131.185 -1036.092)"/></g></g></svg>